<svg width="19" height="19" viewBox="0 0 19 19" fill="none" xmlns="http://www.w3.org/2000/svg">
<path d="M14.287 7.5C15.8925 7.5 17.194 6.15685 17.194 4.5C17.194 2.84315 15.8925 1.5 14.287 1.5C12.6815 1.5 11.38 2.84315 11.38 4.5C11.38 6.15685 12.6815 7.5 14.287 7.5Z" stroke="#BDBDBE" stroke-width="2.5" stroke-linecap="round" stroke-linejoin="round"/>
<path d="M4.59692 17.5C6.2024 17.5 7.50389 16.1569 7.50389 14.5C7.50389 12.8431 6.2024 11.5 4.59692 11.5C2.99144 11.5 1.68994 12.8431 1.68994 14.5C1.68994 16.1569 2.99144 17.5 4.59692 17.5Z" stroke="#BDBDBE" stroke-width="2.5" stroke-linecap="round" stroke-linejoin="round"/>
<path d="M11.38 11.5H17.194V16.5C17.194 17.0523 16.7601 17.5 16.225 17.5H12.349C11.8138 17.5 11.38 17.0523 11.38 16.5V11.5Z" stroke="#BDBDBE" stroke-width="2.5" stroke-linecap="round" stroke-linejoin="round"/>
<path d="M1.68994 1.5H7.50389V6.5C7.50389 7.05228 7.07006 7.5 6.5349 7.5H2.65893C2.12378 7.5 1.68994 7.05228 1.68994 6.5V1.5Z" stroke="#BDBDBE" stroke-width="2.5" stroke-linecap="round" stroke-linejoin="round"/>
</svg>
