<svg width="24" height="24" viewBox="0 0 24 24" fill="none" xmlns="http://www.w3.org/2000/svg">
<path d="M12.1938 3.12952C17.0965 3.12952 21.0648 7.09711 21.0648 12.0005C21.0648 16.9031 17.0972 20.8715 12.1938 20.8715C7.29122 20.8715 3.32288 16.9039 3.32288 12.0005C3.32288 7.09786 7.29046 3.12952 12.1938 3.12952ZM12.1938 1.00049C6.1187 1.00049 1.19385 5.92534 1.19385 12.0005C1.19385 18.0756 6.1187 23.0005 12.1938 23.0005C18.269 23.0005 23.1938 18.0756 23.1938 12.0005C23.1938 5.92534 18.269 1.00049 12.1938 1.00049ZM12.1938 8.4521C10.2341 8.4521 8.64546 10.0408 8.64546 12.0005C8.64546 13.9602 10.2341 15.5489 12.1938 15.5489C14.1536 15.5489 15.7422 13.9602 15.7422 12.0005C15.7422 10.0408 14.1536 8.4521 12.1938 8.4521Z" fill="#BDBDBE" stroke="#BDBDBE"/>
</svg>
