<svg width="16" height="16" viewBox="0 0 16 16" fill="none" xmlns="http://www.w3.org/2000/svg">
<path fill-rule="evenodd" clip-rule="evenodd" d="M10.9263 9.4257C11.7834 8.19287 12.1472 6.68345 11.9458 5.19548C11.7443 3.70751 10.9922 2.34917 9.8381 1.38866C8.68395 0.428146 7.21161 -0.0647056 5.7118 0.00741941C4.21199 0.0795444 2.79374 0.711403 1.73708 1.77823C0.680432 2.84506 0.0621931 4.2693 0.00444302 5.76973C-0.0533071 7.27016 0.45363 8.73771 1.42516 9.8826C2.39668 11.0275 3.76217 11.7665 5.252 11.9537C6.74183 12.1409 8.2477 11.7627 9.47226 10.8937L14.5003 15.9997L16.0003 14.4997L10.9263 9.4257ZM6.00026 9.9997C7.06112 9.9997 8.07854 9.57827 8.82868 8.82813C9.57883 8.07798 10.0003 7.06057 10.0003 5.9997C10.0003 4.93883 9.57883 3.92142 8.82868 3.17127C8.07854 2.42113 7.06112 1.9997 6.00026 1.9997C4.93939 1.9997 3.92197 2.42113 3.17183 3.17127C2.42168 3.92142 2.00026 4.93883 2.00026 5.9997C2.00026 7.06057 2.42168 8.07798 3.17183 8.82813C3.92197 9.57827 4.93939 9.9997 6.00026 9.9997Z" fill="white"/>
</svg>
